# xmcd
#
# Track frame offsets: 
#        150
#        26081
#        67755
#        88056
#        115666
#        140801
#        149855
#        160131
#        172679
#        183213
#        193218
#
# Disc length: 2993 seconds
#
# Revision: 2
# Processed by: cddbd v1.5.2PL0 Copyright (c) Steve Scherf et al.
# Submitted via: ExactAudioCopy v1.0b3
#
DISCID=990baf0b
DTITLE=David Lanz and Gary Stroutsos - Spirit Romance
DYEAR=2005
DGENRE=New Age
TTITLE0=Serenada
TTITLE1=Satori
TTITLE2=Between Worlds
TTITLE3=Oguerre (The Blue Largo Arr.)
TTITLE4=Spirit Romance
TTITLE5=Soliloquy
TTITLE6=Return to Altair Suite 1 - A Distant Light
TTITLE7=Return to Altair Suite 2 - Dreams of Altair
TTITLE8=Return to Altair Suite 3 - Contemplation
TTITLE9=Return to Altair Suite 4 - Compassion
TTITLE10=Return to Altair Suite 5 - The Return
EXTD=YEAR: 2005
EXTT0=
EXTT1=
EXTT2=
EXTT3=
EXTT4=
EXTT5=
EXTT6=
EXTT7=
EXTT8=
EXTT9=
EXTT10=
PLAYORDER=
